<?xml version="1.0" standalone="no"?>
<!DOCTYPE svg PUBLIC "-//W3C//DTD SVG 20010904//EN"
 "http://www.w3.org/TR/2001/REC-SVG-20010904/DTD/svg10.dtd">
<svg version="1.0" xmlns="http://www.w3.org/2000/svg"
 width="1024.000000pt" height="1024.000000pt" viewBox="0 0 1024.000000 1024.000000"
 preserveAspectRatio="xMidYMid meet">

<g transform="translate(0.000000,1024.000000) scale(0.100000,-0.100000)"
fill="#E31C25" stroke="none">
<path d="M4989 9495 c-191 -47 -338 -196 -378 -383 -38 -180 16 -362 143 -479
198 -183 501 -187 693 -9 72 67 115 130 143 212 63 182 17 378 -121 517 -130
130 -309 183 -480 142z"/>
<path d="M4528 8437 c-82 -30 -109 -49 -185 -130 -71 -76 -146 -217 -227 -424
-146 -376 -217 -712 -188 -886 31 -183 149 -302 337 -342 81 -17 385 -56 625
-80 220 -22 238 -27 257 -73 9 -20 77 -220 153 -444 76 -226 149 -425 163
-447 14 -22 43 -52 63 -68 34 -25 45 -28 119 -28 74 0 86 3 124 29 47 33 89
97 98 149 9 55 -16 149 -179 677 -130 425 -134 437 -169 492 -35 55 -114 112
-184 133 -83 25 -289 63 -490 91 -104 14 -192 28 -195 31 -5 5 175 549 190
572 7 12 24 0 84 -55 192 -175 265 -210 476 -224 270 -18 613 -24 667 -11 62
15 98 50 114 114 26 95 -19 180 -115 216 -46 17 -286 50 -596 82 -58 6 -110
16 -117 21 -7 6 -84 105 -171 221 -209 279 -245 317 -340 364 -67 34 -86 38
-161 41 -70 2 -98 -2 -153 -21z"/>
<path d="M2985 8121 c-49 -13 -91 -38 -120 -73 -34 -40 -45 -69 -54 -133 l-6
-50 -100 -6 c-55 -3 -118 -11 -140 -17 -70 -20 -146 -73 -186 -132 -64 -92
-69 -128 -69 -516 0 -330 1 -342 21 -368 l20 -26 684 0 c574 0 684 2 694 14 9
10 11 120 9 413 l-3 398 -26 50 c-68 128 -177 185 -356 185 l-83 0 0 31 c0
115 -98 222 -212 234 -24 2 -56 0 -73 -4z m131 -155 c19 -19 34 -43 34 -54 0
-11 3 -27 6 -36 5 -14 -9 -16 -115 -16 l-121 0 0 25 c0 34 24 80 52 99 12 9
42 16 66 16 37 0 50 -6 78 -34z"/>
<path d="M6602 7755 c-172 -60 -267 -129 -301 -220 -28 -73 -81 -292 -81 -332
0 -18 26 -137 59 -265 71 -282 91 -412 91 -597 0 -226 -49 -427 -160 -656 -82
-168 -158 -248 -268 -282 -50 -16 -101 -18 -407 -18 -366 0 -433 6 -541 46
-105 39 -192 143 -229 273 -28 96 -17 265 29 438 38 147 42 181 25 241 -17 62
-54 77 -239 97 -265 27 -385 53 -550 119 l-115 46 -547 3 c-480 2 -551 1 -578
-13 -56 -29 -76 -104 -44 -171 13 -28 32 -42 100 -74 46 -22 84 -44 84 -48 0
-5 -30 -42 -68 -83 -102 -112 -143 -164 -220 -281 -130 -199 -239 -452 -250
-584 -8 -104 -97 -95 969 -100 864 -4 924 -5 953 -22 21 -12 46 -46 77 -105
47 -88 74 -119 119 -138 31 -13 1368 -20 1485 -8 167 17 264 100 347 292 74
173 157 338 215 426 67 101 193 230 325 334 83 66 100 85 127 139 39 83 46
135 27 233 -25 128 -66 199 -380 665 -55 81 -116 190 -116 207 0 4 44 8 98 8
152 0 181 31 190 206 5 107 -13 192 -47 223 -33 30 -97 30 -179 1z"/>
<path d="M7155 6073 c-112 -24 -253 -96 -348 -178 -139 -120 -270 -355 -312
-560 -19 -92 -15 -117 20 -133 73 -34 150 4 219 108 62 93 200 232 283 287 77
51 194 100 287 120 99 22 289 21 394 -1 89 -19 116 -16 133 16 47 89 -198 290
-406 333 -65 14 -223 18 -270 8z"/>
<path d="M7205 5546 c-98 -33 -160 -71 -230 -141 -140 -141 -194 -337 -145
-529 58 -228 231 -382 467 -416 171 -24 340 35 469 164 113 112 164 235 164
391 0 163 -47 274 -164 390 -124 123 -226 165 -396 164 -72 0 -112 -6 -165
-23z m272 -267 c199 -75 248 -331 90 -476 -77 -71 -188 -91 -289 -53 -111 41
-178 127 -186 240 -7 96 17 160 82 225 83 83 191 105 303 64z"/>
<path d="M2815 5160 c-10 -16 4 -117 27 -195 65 -226 229 -397 448 -468 182
-60 362 -39 534 61 81 47 193 161 244 247 50 86 100 231 104 305 l3 55 -140 0
-140 0 -16 -66 c-44 -182 -160 -298 -327 -329 -72 -13 -143 -3 -221 31 -100
43 -201 185 -218 309 l-8 55 -142 3 c-90 2 -144 -1 -148 -8z"/>
<path d="M1451 3996 c-8 -9 -10 -166 -9 -567 l3 -554 247 -3 c276 -3 345 6
452 56 88 42 157 101 209 179 62 93 88 175 94 299 17 308 -149 530 -439 588
-105 22 -540 23 -557 2z m559 -235 c129 -61 199 -196 187 -358 -6 -82 -30
-143 -77 -196 -71 -82 -171 -117 -332 -117 l-98 0 0 351 0 352 138 -5 c114 -4
145 -9 182 -27z"/>
<path d="M2662 3993 c-11 -23 -15 -1094 -4 -1111 7 -9 84 -12 353 -10 l344 3
0 105 0 105 -222 3 -222 2 -6 33 c-3 17 -5 75 -3 127 l3 95 171 -4 c95 -1 181
0 193 4 19 6 21 13 21 105 0 82 -3 99 -17 104 -9 4 -95 6 -190 6 l-173 -2 -5
94 c-6 152 -29 138 225 138 217 0 218 0 224 23 11 40 7 172 -6 185 -9 9 -99
12 -345 12 -306 0 -333 -1 -341 -17z"/>
<path d="M3585 3998 c-3 -7 -4 -263 -3 -568 l3 -555 337 -3 338 -2 5 22 c3 13
5 61 3 108 l-3 85 -217 3 -218 2 -2 458 -3 457 -118 3 c-88 2 -119 -1 -122
-10z"/>
<path d="M4445 3998 c-3 -7 -4 -263 -3 -568 l3 -555 115 0 115 0 0 565 0 565
-113 3 c-84 2 -114 -1 -117 -10z"/>
<path d="M4867 4003 c-15 -14 -3 -54 104 -345 98 -269 266 -723 284 -770 6
-16 23 -18 150 -18 102 0 145 4 152 13 6 6 18 37 28 67 10 30 98 272 196 538
99 266 179 492 179 503 0 19 -6 19 -122 17 l-123 -3 -28 -80 c-50 -140 -164
-465 -218 -622 -29 -84 -55 -153 -58 -153 -3 0 -25 55 -48 123 -86 254 -243
697 -253 717 -10 18 -21 20 -124 20 -62 0 -116 -3 -119 -7z"/>
<path d="M6141 3997 c-8 -11 -10 -164 -9 -568 l3 -554 349 -3 c273 -2 351 1
358 10 11 19 10 166 -2 189 -10 18 -24 19 -241 19 l-230 0 3 128 3 127 183 -3
c118 -1 190 2 204 9 18 10 20 19 16 100 -2 66 -7 92 -18 99 -8 5 -100 10 -203
10 l-188 0 3 113 3 112 215 2 c118 1 221 3 228 3 10 0 12 25 10 108 l-3 107
-336 3 c-276 2 -338 0 -348 -11z"/>
<path d="M7055 3998 c-3 -7 -4 -263 -3 -568 l3 -555 115 0 115 0 3 203 2 202
63 0 c58 0 64 -2 78 -27 9 -16 62 -108 119 -205 l103 -178 128 0 c76 0 130 4
134 10 4 6 -51 103 -121 217 -70 114 -123 208 -117 210 34 12 110 73 139 112
52 72 67 127 62 240 -3 80 -8 106 -31 153 -45 92 -125 152 -244 183 -76 20
-541 22 -548 3z m491 -224 c58 -29 79 -65 79 -134 0 -71 -21 -105 -85 -137
-37 -20 -60 -23 -147 -23 l-103 0 0 159 0 158 110 -2 c82 -2 118 -8 146 -21z"/>
<path d="M7936 4002 c-5 -8 41 -93 263 -482 l116 -205 5 -220 5 -220 104 -3
c67 -2 108 1 117 9 11 9 14 53 14 218 l0 207 190 332 c105 183 190 342 190
353 0 19 -6 19 -122 17 l-122 -3 -114 -195 c-62 -107 -117 -206 -123 -219 -9
-24 -10 -24 -23 -5 -7 10 -62 105 -121 209 -59 105 -111 196 -117 203 -12 14
-253 18 -262 4z"/>
<path d="M1987 2534 c-130 -31 -233 -109 -279 -211 -27 -59 -32 -217 -9 -273
47 -114 124 -172 338 -256 208 -81 248 -124 208 -220 -11 -26 -26 -40 -61 -56
-92 -40 -276 -12 -379 57 -20 14 -40 25 -44 25 -12 0 -101 -174 -101 -197 0
-19 77 -77 133 -101 120 -50 324 -67 440 -37 212 55 331 226 297 424 -27 155
-118 233 -395 337 -173 65 -227 145 -154 229 62 70 191 74 327 10 45 -21 85
-34 92 -30 22 14 92 177 86 200 -4 15 -27 32 -76 54 -122 56 -299 75 -423 45z"/>
<path d="M4163 2536 c-79 -18 -175 -69 -213 -113 -17 -19 -42 -57 -58 -86 -25
-48 -27 -61 -27 -162 0 -103 2 -113 30 -164 53 -95 135 -148 368 -236 112 -42
163 -81 172 -129 31 -160 -234 -200 -449 -68 l-40 25 -19 -24 c-11 -13 -37
-60 -59 -104 l-40 -79 28 -23 c48 -40 166 -92 243 -108 262 -55 504 34 587
218 23 52 28 75 28 148 0 73 -4 93 -27 141 -32 65 -104 136 -173 171 -27 13
-96 43 -154 66 -137 54 -179 79 -207 120 -28 41 -29 66 -3 108 28 47 62 65
133 70 70 6 148 -12 229 -53 26 -13 53 -24 61 -24 19 0 102 190 90 208 -13 22
-111 69 -178 87 -86 23 -246 28 -322 11z"/>
<path d="M2633 2513 c-8 -20 -8 -19 235 -439 l192 -331 0 -221 c0 -121 3 -227
6 -236 5 -13 26 -16 123 -16 78 0 121 4 129 12 9 9 12 77 12 245 l0 233 211
362 c117 199 214 369 216 379 3 11 -3 18 -22 21 -51 10 -224 9 -244 -1 -17 -9
-64 -89 -238 -403 -26 -48 -51 -88 -55 -88 -3 0 -63 102 -134 228 -70 125
-133 237 -141 250 -13 21 -19 22 -149 22 -117 0 -135 -2 -141 -17z"/>
<path d="M4888 2523 c-19 -5 -26 -67 -20 -180 l4 -63 174 0 174 0 0 -486 c0
-315 4 -492 10 -505 10 -17 22 -19 123 -19 75 0 117 4 125 12 9 9 12 135 12
505 l0 493 179 0 179 0 4 68 c1 37 1 92 -2 122 l-5 55 -470 1 c-258 1 -478 0
-487 -3z"/>
<path d="M6077 2518 c-16 -12 -17 -59 -15 -628 l3 -615 379 -3 c297 -2 381 1
388 10 11 19 10 186 -2 209 -10 18 -24 19 -255 19 l-245 0 0 145 0 145 218 2
217 3 3 90 c5 149 27 135 -223 135 l-215 0 0 125 0 125 250 0 250 0 1 73 c2
111 -2 161 -15 169 -6 4 -171 8 -367 8 -269 0 -359 -3 -372 -12z"/>
<path d="M7127 2518 c-14 -12 -18 -68 -31 -473 -9 -253 -17 -530 -18 -615 l-3
-155 119 -3 c66 -1 123 1 128 6 4 4 13 161 18 347 6 187 13 369 16 404 l6 64
33 -59 c18 -32 91 -167 161 -299 71 -132 134 -249 140 -259 17 -28 141 -35
171 -9 19 15 186 315 311 558 l36 70 14 -390 c7 -214 17 -400 22 -412 9 -22
15 -23 124 -23 87 0 116 3 126 15 9 11 9 72 0 277 -26 581 -47 948 -54 955 -4
4 -62 9 -129 11 -108 2 -125 1 -139 -15 -9 -10 -73 -124 -143 -253 -70 -129
-152 -281 -183 -338 -30 -56 -59 -99 -63 -95 -4 5 -34 58 -67 118 -32 61 -102
187 -154 281 -53 93 -109 197 -126 231 -36 71 -42 73 -196 73 -66 0 -108 -4
-119 -12z"/>
</g>
</svg>
